<svg xmlns="http://www.w3.org/2000/svg" viewBox="0 0 512 512" style="width:256px;height:256px"><path d="M352.457 16.34c-52.855 0-99.629 25.766-128.656 65.367a160.738 160.738 0 00-42.066-5.602c-64.645 0-123.68 39.414-148.684 98.668l-.199.211-1.957 5.152c-.152.394-.301.789-.445 1.187l-1.379 3.626v.242a160.821 160.821 0 00-6.961 28.938l-.11.227-.738 3.418-16.473 77.613L0 317.946l21.11 9.278 32.641 14.351v24.813c0 25.503 20.742 46.254 46.226 46.254 1.172 0 2.351-.039 3.523-.133l39.129-1.41 1.274-.039v84.602h36.344l6.527-3.726 98.695-56.324 14.297-8.16V350.43l38.5-1.386 2.817-.098v102.758h.566l118.414-67.578v-90.48a164.784 164.784 0 005.016-4.77C494.074 260.004 512 220.055 512 175.879 512 87.758 440.582 16.34 352.457 16.34zM172.25 467.219v-85.551l-70.462 2.535c-.609.062-1.214.09-1.812.09-9.754 0-17.879-7.926-17.879-17.906V323.07l-49.578-21.797 4.27-20.114 12.551-57.343c.004-.016.004-.031.004-.047l.129.058c1.191-11.722 3.882-22.992 7.922-33.621.023-.023.023-.05.023-.05 7.024-18.466 18.066-34.934 32.016-48.402.282-.27.543-.563.828-.829 1.426-1.351 2.934-2.613 4.422-3.902 1.098-.953 2.165-1.945 3.294-2.855.863-.703 1.774-1.34 2.656-2.019 1.805-1.379 3.602-2.782 5.469-4.074.426-.293.879-.551 1.305-.844 2.34-1.578 4.703-3.113 7.137-4.542.262-.153.539-.286.801-.434a131.033 131.033 0 017.89-4.242c.617-.305 1.258-.562 1.882-.852 2.309-1.094 4.63-2.16 7.004-3.121 2.059-.828 4.168-1.554 6.278-2.285.938-.325 1.852-.696 2.793-1 12.786-4.09 26.402-6.301 40.543-6.301 7.973 0 15.738.824 23.324 2.171 1.133.219 2.282.309 3.414.563-1.875 3.914-3.622 7.894-5.172 11.976 0 0 0 .031-.031.066-2.84 7.477-5.054 15.242-6.746 23.211-.554 2.434-.91 4.91-1.39 7.363a333.414 333.414 0 00-1.082 5.738c-.214 1.278-.534 2.535-.722 3.816l-.11-.05s0 .023-.027.05l-19.762 93.13 59.485 26.152v51.973c0 12.707 10.976 22.637 23.625 21.375l14.511-.524.367-.008v59.532l-33.51 19.122-65.66 37.109z" fill="#fff"/></svg>