<svg xmlns="http://www.w3.org/2000/svg" viewBox="0 0 512 512" style="width:256px;height:256px"><path d="M389.191 362.078c-9.214-13.786-2.475-114.503 21.24-152.135 29.75-47.22 85.028-133.062 89.249-150.201 4.2-17.14-133.247-21.164-231.161-6.762-40.414 5.948-59.686-5.179-69.186-15.964-14.61-16.601-36.775-29.101-45.856-34.081-24.474-13.446-49.276 22.79-24.243 38.061 35.335 21.526 70.406 65.129 23.869 112.106-46.99 46.538-90.591 11.478-112.106-23.868-15.271-25.033-51.507-.22-38.062 24.243 4.981 9.069 17.48 31.244 34.081 45.856 10.785 9.498 21.9 28.772 15.952 69.186-14.389 97.913-10.376 235.361 6.774 231.161 17.129-4.21 102.982-59.489 150.201-89.249 37.643-23.715 138.348-30.465 152.136-21.252 81.323 80.508 139.646 128.707 146.155 122.243.538-.528.648-1.485.341-2.848 1.362.308 2.319.198 2.847-.34 6.464-6.498-41.733-64.832-122.231-146.156zm-272.114-48.901l-3.287-5.749h.01l.045-.022a3.84 3.84 0 01.187-.121c.187-.11.462-.276.846-.495.736-.439 1.869-1.11 3.342-2.012a421.932 421.932 0 0012.61-8.102c10.796-7.202 26.034-17.964 43.636-32.147l9.18 11.401c-35.994 28.98-62.346 44.053-62.6 44.207l-3.969-6.96zm35.301 38.886l-4.002-7.004-3.254-5.694.055-.034c.033-.01.098-.054.197-.098.187-.122.473-.276.836-.506.758-.439 1.879-1.11 3.331-2.023a382.723 382.723 0 0012.62-8.102c10.796-7.191 26.034-17.953 43.647-32.136l9.17 11.401c-35.973 28.991-62.347 44.053-62.6 44.196zm112.139-177.598c14.194-17.602 24.956-32.839 32.158-43.636a419.89 419.89 0 008.102-12.61 157.622 157.622 0 002.012-3.342c.231-.374.385-.66.496-.846a.871.871 0 00.109-.187l.034-.044.01-.01 5.739 3.287 6.96 3.969c-.143.253-15.228 26.616-44.219 62.599l-11.401-9.18zm43.35 40.524l-11.401-9.18c14.182-17.613 24.946-32.851 32.147-43.647 3.595-5.398 6.31-9.696 8.092-12.621a91.036 91.036 0 002.022-3.331c.231-.374.385-.66.496-.836.055-.088.099-.164.11-.198l.032-.044v-.01l5.694 3.254 7.004 4.002c-.143.253-15.205 26.627-44.196 62.611z" fill="#4b4b4b"/></svg>