<!--?xml version="1.0" encoding="utf-8"?-->
<!-- Generator: Adobe Illustrator 18.1.1, SVG Export Plug-In . SVG Version: 6.00 Build 0)  -->

<svg version="1.1" id="_x31_0" xmlns="http://www.w3.org/2000/svg" xmlns:xlink="http://www.w3.org/1999/xlink" x="0px" y="0px" viewBox="0 0 512 512" style="width: 256px; height: 256px; opacity: 1;" xml:space="preserve">
<style type="text/css">
	.st0{fill:#374149;}
</style>
<g>
	<path class="st0" d="M352.457,16.34c-52.855,0-99.629,25.766-128.656,65.367c-13.418-3.633-27.516-5.602-42.066-5.602
		c-64.645,0-123.68,39.414-148.684,98.668l-0.199,0.211l-1.957,5.152c-0.152,0.394-0.301,0.789-0.445,1.187l-1.379,3.626v0.242
		c-3.203,9.375-5.531,19.066-6.961,28.938L22,214.356l-0.738,3.418L4.789,295.387L0,317.946l21.11,9.278l32.641,14.351v24.813
		c0,25.503,20.742,46.254,46.226,46.254c1.172,0,2.351-0.039,3.523-0.133l39.129-1.41l1.274-0.039v56.25v28.102v0.086l0,0v0.164
		h28.348h0.472h7.524l6.527-3.726l98.695-56.324l14.297-8.16v-16.461V350.43l38.5-1.386l2.817-0.098v102.758h0.566l118.414-67.578
		v-90.48c1.699-1.558,3.383-3.141,5.016-4.77C494.074,260.004,512,220.055,512,175.879C512,87.758,440.582,16.34,352.457,16.34z
		 M172.25,467.219v-85.551l-70.462,2.535c-0.609,0.062-1.214,0.09-1.812,0.09c-9.754,0-17.879-7.926-17.879-17.906V323.07
		l-49.578-21.797l4.27-20.114l12.551-57.343c0.004-0.016,0.004-0.031,0.004-0.047l0.129,0.058
		c1.191-11.722,3.882-22.992,7.922-33.621c0.023-0.023,0.023-0.05,0.023-0.05c7.024-18.466,18.066-34.934,32.016-48.402
		c0.282-0.27,0.543-0.563,0.828-0.829c1.426-1.351,2.934-2.613,4.422-3.902c1.098-0.953,2.165-1.945,3.294-2.855
		c0.863-0.703,1.774-1.34,2.656-2.019c1.805-1.379,3.602-2.782,5.469-4.074c0.426-0.293,0.879-0.551,1.305-0.844
		c2.34-1.578,4.703-3.113,7.137-4.542c0.262-0.153,0.539-0.286,0.801-0.434c2.582-1.497,5.206-2.922,7.89-4.242
		c0.617-0.305,1.258-0.562,1.882-0.852c2.309-1.094,4.63-2.16,7.004-3.121c2.059-0.828,4.168-1.554,6.278-2.285
		c0.938-0.325,1.852-0.696,2.793-1c12.786-4.09,26.402-6.301,40.543-6.301c7.973,0,15.738,0.824,23.324,2.171
		c1.133,0.219,2.282,0.309,3.414,0.563c-1.875,3.914-3.622,7.894-5.172,11.976c0,0,0,0.031-0.031,0.066
		c-2.84,7.477-5.054,15.242-6.746,23.211c-0.554,2.434-0.91,4.91-1.39,7.363c-0.386,1.946-0.742,3.852-1.082,5.738
		c-0.214,1.278-0.534,2.535-0.722,3.816l-0.11-0.05c0,0,0,0.023-0.027,0.05l-19.762,93.13l59.485,26.152v51.973
		c0,12.707,10.976,22.637,23.625,21.375l14.511-0.524l0.367-0.008v59.532L237.91,430.11L172.25,467.219z" style="fill: rgb(255, 255, 255);"></path>
</g>
</svg>
